<?xml version="1.0" encoding="UTF-8" standalone="no"?>
<!-- Created with Inkscape (http://www.inkscape.org/) -->

<svg
   version="1.1"
   id="svg1"
   width="634.66669"
   height="599.71417"
   viewBox="0 0 634.66669 599.71418"
   sodipodi:docname="JesusChrist6c.svg"
   inkscape:version="1.3.2 (091e20ef0f, 2023-11-25)"
   xmlns:inkscape="http://www.inkscape.org/namespaces/inkscape"
   xmlns:sodipodi="http://sodipodi.sourceforge.net/DTD/sodipodi-0.dtd"
   xmlns="http://www.w3.org/2000/svg"
   xmlns:svg="http://www.w3.org/2000/svg">
  <defs
     id="defs1" />
  <sodipodi:namedview
     id="namedview1"
     pagecolor="#ffffff"
     bordercolor="#000000"
     borderopacity="0.25"
     inkscape:showpageshadow="2"
     inkscape:pageopacity="0.0"
     inkscape:pagecheckerboard="0"
     inkscape:deskcolor="#d1d1d1"
     showgrid="false"
     inkscape:zoom="0.94398755"
     inkscape:cx="339.51719"
     inkscape:cy="366.00059"
     inkscape:window-width="1920"
     inkscape:window-height="1011"
     inkscape:window-x="0"
     inkscape:window-y="0"
     inkscape:window-maximized="1"
     inkscape:current-layer="layer1" />
  <g
     inkscape:groupmode="layer"
     id="layer1"
     inkscape:label="Layer 1"
     transform="translate(0,-10.952529)">
    <path
       id="path6"
       style="display:inline;fill:#ffcc00"
       d="M 317.0332 15.307998 C 315.57534 15.307998 290.85126 17.941929 288.79492 18.47206 C 286.73859 19.002193 263.4753 28.496949 261.19531 29.966201 C 258.91533 31.435453 240.21875 49.255263 240.21875 49.255263 L 218.97461 77.09706 C 218.97461 77.09706 205.51316 150.84315 204.11328 150.84315 C 202.7134 150.84315 189.99805 204.7787 189.99805 204.7787 C 189.99805 204.7787 191.7167 262.91804 190.01758 263.69667 C 188.31847 264.47531 201.63477 302.41737 201.63477 302.41737 L 196.06836 318.4994 L 180.05078 349.78065 L 163.04297 372.06581 L 150.51172 391.45448 C 150.51172 391.45448 163.60751 398.06832 165.82227 398.33339 C 168.03701 398.59845 182.44145 400.25896 184.69141 399.98769 C 186.94136 399.71641 205.04497 396.31584 206.36719 397.14003 C 207.68942 397.96422 220.91875 384.65258 222.62305 382.26698 C 224.32734 379.88139 248.05469 319.95839 248.05469 319.95839 L 252.50586 308.73183 C 252.50586 308.73183 272.70314 331.83397 274.55859 333.26698 C 276.41406 334.7 298.60742 353.12636 298.60742 353.12636 C 298.60742 353.12636 313.69485 352.33227 315.64453 351.80214 C 317.59422 351.272 347.15115 353.11348 348.87305 353.54628 C 350.59494 353.97908 382.67188 320.25917 382.67188 320.25917 L 393.23633 315.96425 C 393.23633 315.96425 400.68164 353.48479 400.68164 356.31386 C 400.68164 359.14292 420.09375 389.94276 420.09375 389.94276 L 440.76367 402.87831 L 469.35156 394.33729 L 472.61328 365.64979 L 471.99023 356.47792 C 471.99023 356.47792 457.3284 327.07204 454.41992 326.96229 C 451.51144 326.85254 450.77148 295.67773 450.77148 294.48183 C 450.77148 293.28593 464.44336 244.79433 464.44336 244.79433 L 456.96094 191.40175 C 456.96094 191.40175 444.4043 148.68461 444.4043 146.98964 C 444.4043 145.29467 434.20033 107.10161 432.875 104.25526 C 431.54967 101.40891 420.84276 69.166531 418.26562 67.841201 C 415.68848 66.515871 402.17075 45.294043 399.44141 44.233779 C 396.71206 43.173515 383.11523 28.132216 383.11523 28.132216 C 383.11523 28.132216 352.24848 17.427973 350.31641 16.897841 C 348.38432 16.367709 318.49106 15.307998 317.0332 15.307998 z M 320.6543 55.153701 L 335.48047 72.407607 C 335.48047 72.407607 353.25564 81.720488 354.58008 81.968154 C 355.90451 82.215821 372.69531 92.311904 372.69531 92.311904 L 384.22656 104.15956 L 394.91797 119.88808 L 404.59961 142.53261 L 402.89258 163.63808 L 405.00781 173.63026 L 416.18555 214.49159 L 419.47852 238.19667 L 410.625 236.83925 L 402.26562 232.05995 L 392.93555 247.82948 C 392.93555 247.82948 381.15639 267.26503 378.47656 267.26503 C 375.79678 267.26503 356.60352 255.88808 356.60352 255.88808 L 348.88867 267.58729 L 337.29883 274.70058 C 337.29883 274.70058 324.04273 278.17903 321.94531 277.9662 C 319.84789 277.75336 309.49023 275.36854 309.49023 275.36854 L 291.18945 267.34511 L 284.21484 257.61073 L 270.59766 266.08339 L 246.52539 231.43495 L 230.86523 237.87831 C 230.86523 237.87831 224.59195 227.4924 225.95508 226.7494 C 227.31821 226.0064 238.49805 205.13612 238.49805 205.13612 L 246.30078 135.16933 L 261.3125 98.737685 L 277.92969 82.870498 L 298.03711 72.22206 L 315.74023 57.513076 L 320.6543 55.153701 z M 314.28711 238.70058 L 305.01562 246.27089 L 293.44727 253.57753 L 291.61133 259.27675 L 304.75391 261.16933 L 321.25 244.30019 L 314.28711 238.70058 z M 335.48438 239.77675 L 335.09961 240.37831 L 335.07617 240.36659 L 323.76367 244.45839 L 326.73633 249.06776 L 331.52148 253.70448 C 331.52148 253.70448 335.11182 257.183 335.73047 257.183 C 336.34911 257.183 352.60742 258.72597 352.60742 258.72597 L 349.12109 250.64589 L 345.16992 246.09706 L 341.99023 244.08339 L 341.55273 243.32948 L 335.48438 239.77675 z " />
    <path
       id="path5"
       style="display:inline;fill:#00ffff"
       d="m 361.5332,165.0287 -7.85156,2.68945 -7.46094,5.21875 -3.36914,3.6543 c 0.57988,0 9.93939,4.72461 10.65235,4.72461 0.71295,0 7.86523,1.33203 7.86523,1.33203 l 7.9375,0.33399 15.04492,-7.81446 c 0,0 -8.13517,-8.02731 -8.6582,-7.82812 -0.52303,0.19919 -14.16016,-2.31055 -14.16016,-2.31055 z m -75.98828,0.29688 -14.66015,3.11132 -8.41797,5.51758 c 0,0 4.64098,5.86524 5.55859,5.86524 0.91762,0 5.24219,2.87304 5.24219,2.87304 l 2.88672,0.85352 c 0,0 10.35852,-0.35462 10.88281,-0.87891 0.52429,-0.52429 4.03906,-1.82617 4.03906,-1.82617 0,0 5.35087,-5.14077 5.89453,-5.45703 0.54367,-0.31626 1.72824,-2.56858 1.79688,-3.07813 0.0686,-0.50954 -5.1875,-5.14062 -5.1875,-5.14062 z" />
    <path
       id="path4"
       style="fill:#ffb380"
       d="M 320.6543 55.153701 L 315.74023 57.513076 L 298.03711 72.22206 L 277.92969 82.870498 L 261.3125 98.737685 L 246.30078 135.16933 L 238.49805 205.13612 C 238.49805 205.13612 227.31821 226.0064 225.95508 226.7494 C 224.59195 227.4924 230.86523 237.87831 230.86523 237.87831 L 246.52539 231.43495 L 270.59766 266.08339 L 284.21484 257.61073 L 291.18945 267.34511 L 309.49023 275.36854 C 309.49023 275.36854 319.84789 277.75336 321.94531 277.9662 C 324.04273 278.17903 337.29883 274.70058 337.29883 274.70058 L 348.88867 267.58729 L 356.60352 255.88808 C 356.60352 255.88808 375.79679 267.26503 378.47656 267.26503 C 381.15639 267.26503 392.93555 247.82948 392.93555 247.82948 L 402.26562 232.05995 L 410.625 236.83925 L 419.47852 238.19667 L 416.18555 214.49159 L 405.00781 173.63026 L 402.89258 163.63808 L 404.59961 142.53261 L 394.91797 119.88808 L 384.22656 104.15956 L 372.69531 92.311904 C 372.69531 92.311904 355.90451 82.215821 354.58008 81.968154 C 353.25564 81.720488 335.48047 72.407607 335.48047 72.407607 L 320.6543 55.153701 z M 361.5332 165.0287 C 361.5332 165.0287 375.17033 167.53844 375.69336 167.33925 C 376.21639 167.14006 384.35156 175.16737 384.35156 175.16737 L 369.30664 182.98183 L 361.36914 182.64784 C 361.36914 182.64784 354.21686 181.31581 353.50391 181.31581 C 352.79095 181.31581 343.43144 176.5912 342.85156 176.5912 L 346.2207 172.9369 L 353.68164 167.71815 L 361.5332 165.0287 z M 285.54492 165.32558 L 293.58008 167.16542 C 293.58008 167.16542 298.83618 171.79652 298.76758 172.30604 C 298.69894 172.81559 297.51437 175.06791 296.9707 175.38417 C 296.42704 175.70043 291.07617 180.8412 291.07617 180.8412 C 291.07617 180.8412 287.5614 182.14308 287.03711 182.66737 C 286.51282 183.19166 276.1543 183.54628 276.1543 183.54628 L 273.26758 182.69276 C 273.26758 182.69276 268.94301 179.81972 268.02539 179.81972 C 267.10778 179.81972 262.4668 173.95448 262.4668 173.95448 L 270.88477 168.4369 L 285.54492 165.32558 z M 314.28711 238.70058 L 321.25 244.30019 L 304.75391 261.16933 L 291.61133 259.27675 L 293.44727 253.57753 L 305.01562 246.27089 L 314.28711 238.70058 z M 335.48438 239.77675 L 341.55273 243.32948 L 341.99023 244.08339 L 345.16992 246.09706 L 349.12109 250.64589 L 352.60742 258.72597 C 352.60742 258.72597 336.34911 257.183 335.73047 257.183 C 335.11182 257.183 331.52148 253.70448 331.52148 253.70448 L 326.73633 249.06776 L 323.76367 244.45839 L 335.07617 240.36659 L 335.09961 240.37831 L 335.48438 239.77675 z M 256.21289 313.25331 L 247.71875 319.83729 L 247.27344 343.81972 L 239.60156 374.85097 C 239.60156 374.85097 225.54645 386.39891 224.42188 387.96425 C 223.2973 389.52958 216.79492 399.92128 216.79492 399.92128 L 234.18555 422.52284 L 268.47461 439.94862 L 309.46094 444.09706 C 309.46094 444.09706 358.42657 441.92714 359.85938 441.92714 C 361.29219 441.92714 395.1216 429.88679 397.15039 429.04042 C 399.17917 428.19406 420.43945 406.52675 420.43945 406.52675 L 421.58008 399.80604 L 406.48438 389.433 C 406.48438 389.433 393.79434 372.14529 394.86914 371.1869 C 395.94393 370.22852 392.3907 336.1355 392.57812 335.13612 C 392.76555 334.13674 392.66406 313.95448 392.66406 313.95448 C 392.66406 313.95448 372.21 332.67315 372.93555 333.77284 C 373.66111 334.87253 344.43164 354.47597 344.43164 354.47597 L 321.53711 350.7494 L 309.05078 355.92909 L 290.51562 348.65565 L 256.21289 313.25331 z " />
    <path
       style="fill:#008000"
       d="m 421.56518,478.8147 15.56977,-34.39844 0.79609,-40.1693 24.68834,-3.82663 11.37681,-6.5622 4.31507,-3.96302 24.07304,14.39467 12.95471,11.81608 20.86172,5.27926 c 0,0 16.16128,12.87384 18.48612,15.07657 2.32484,2.20273 26.79117,34.98995 26.79117,34.98995 l 21.51508,19.5867 1.15607,7.21716 -31.31556,110.04295 -214.63856,-0.35998 z"
       id="path3" />
    <path
       id="path2"
       style="fill:#ff0000"
       d="M 153.58984 394.68104 L 134.71289 406.67714 L 89.429688 432.01112 L 65.361328 450.94667 C 65.361328 450.94667 52.039187 471.3542 50.066406 472.51503 C 48.093624 473.67587 32.033203 504.0287 32.033203 504.0287 L 17.748047 556.95839 L 5.0722656 599.95253 L 6.6816406 606.69276 L 363.74609 607.83925 C 363.74609 607.83925 407.98499 503.11046 409.61523 502.70448 C 411.24547 502.29851 429.33789 460.22011 429.33789 460.22011 L 436.43945 445.5912 L 440.30469 417.81776 L 434.42383 402.70644 L 420.95703 404.29237 L 407.19727 422.38026 L 380.89844 435.95644 L 347.55664 443.8119 L 307.20898 442.27479 L 268.92578 439.29433 L 245.26172 428.21425 L 210.6875 398.81972 L 193.10156 400.933 L 179.74414 402.13222 L 165.23047 402.03847 L 153.58984 394.68104 z M 601.66406 517.74159 L 575.00977 605.47597 L 632.13672 607.74745 L 615.63086 537.31386 L 601.66406 517.74159 z " />
    <path
       style="fill:#000000"
       d="m 0,603.44489 c 0,-4.88101 3.2600261,-19.03458 10.057848,-43.66666 15.3655,-55.67729 19.286217,-65.93735 33.288282,-87.11155 18.154915,-27.45422 43.128016,-47.38179 86.18116,-68.76925 16.28939,-8.09206 16.91485,-8.55971 18.46152,-13.80329 2.80995,-9.52643 8.01727,-17.52945 14.60697,-22.44911 5.01539,-3.74434 6.60858,-5.87281 7.34863,-9.81758 1.33654,-7.12438 4.67028,-13.1049 13.28221,-23.82744 13.11591,-16.33036 14.3817,-29.39832 6.00544,-62 -3.47864,-13.53938 -4.3997,-20.10893 -4.90873,-35.01197 -0.77285,-22.62715 0.95104,-35.141 7.82166,-56.77796 2.88358,-9.08097 6.39715,-23.49317 7.80793,-32.02713 1.41078,-8.53395 3.45825,-20.91628 4.54995,-27.51628 1.09169,-6.6 3.71004,-18.73408 5.81854,-26.964625 3.16788,-12.365779 5.20283,-17.177872 11.71764,-27.708892 18.35515,-29.670606 40.9541,-47.110991 69.12184,-53.34369 7.71834,-1.707844 12.83228,-2.064358 19.33333,-1.347808 4.86152,0.535841 11.23912,0.773874 14.17246,0.528964 2.93333,-0.24491 11.03333,-0.399797 18,-0.344194 10.81781,0.08634 14.34369,0.724097 24.15614,4.369321 21.84757,8.116146 39.92955,22.978721 52.89531,43.477589 3.2469,5.133334 7.00752,10.917012 8.35695,12.852618 2.05126,2.942308 6.35495,16.533046 8.59658,27.147384 5.81448,27.532103 13.98146,58.338503 19.17441,72.327193 9.24056,24.89205 13.21243,61.72733 8.93315,82.84644 -1.24361,6.13747 -3.80871,16.03418 -5.70022,21.9927 -2.85884,9.00574 -3.42001,13.24459 -3.3259,25.12251 0.14274,18.01642 1.53324,22.54526 10.26555,33.43479 9.57069,11.93504 11.99568,19.43342 11.77353,36.4052 l -0.17621,13.46217 10.85869,4.3573 c 9.29953,3.73166 12.12747,5.68754 19.69507,13.62169 7.72363,8.09774 9.81328,9.51949 16.59406,11.29019 17.42563,4.55047 28.14498,12.91313 45.89712,35.80649 9.96034,12.84496 14.91628,17.89598 31.15242,31.75008 l 7.52002,6.41674 v 9.18292 c 0,7.40986 1.17098,12.60696 6.06466,26.91659 10.52985,30.79039 19.26868,65.55601 19.26868,76.65645 v 9.7439 H 317.33334 0 Z m 42.821337,-3.11154 c 0.147303,-2.22222 0.183704,-2.22222 0.764432,0 0.563594,2.15666 3.63105,2.33334 40.511999,2.33334 H 124 l 0.0937,-52.33334 c 0.0515,-28.78333 0.56392,-53.53333 1.13863,-55 0.58007,-1.48038 1.43222,11.86534 1.91556,30 0.47885,17.96667 1.24315,42.71667 1.69843,55 l 0.82778,22.33334 h 10.93037 10.93036 l -2.93455,-25.66667 c -4.56286,-39.90851 -4.86003,-43.03751 -4.00625,-42.18373 0.5907,0.5907 10.07262,63.95053 10.07262,67.30701 0,0.29886 6.25957,0.54339 13.91015,0.54339 12.10247,0 13.99762,-0.30323 14.58322,-2.33334 0.37019,-1.28333 2.31103,-12.8321 4.31298,-25.66393 2.00196,-12.83183 3.89182,-22.57489 4.1997,-21.65125 0.47525,1.42574 -4.12868,40.33648 -5.59835,47.31518 -0.43054,2.04442 0.64882,2.33334 8.71713,2.33334 h 9.20851 v -98.66667 c 0,-83.44682 -0.28651,-98.66667 -1.85735,-98.66667 -2.69623,0 -3.24126,2.20269 -5.7117,23.08362 -2.56261,21.65991 -4.01527,22.73372 -1.86609,1.37941 0.78933,-7.84273 1.43514,-15.93652 1.43514,-17.9862 v -3.7267 l -10.36004,0.79891 c -9.79437,0.75529 -10.82357,0.56493 -18.84932,-3.48646 l -8.48927,-4.28537 -6.15069,2.26628 c -10.06822,3.70973 -45.82116,22.53635 -56.561814,29.78407 -31.616119,21.33434 -51.660689,48.09007 -64.117916,85.58537 -3.898325,11.73365 -23.4709597,81.14676 -23.4709597,83.23827 0,0.37517 7.8000007,0.68214 17.3333337,0.68214 15.560127,0 17.349157,-0.2387 17.488003,-2.33334 z M 309.03245,589.00002 c -11.28428,-18.91419 -35.51378,-67.04282 -41.44926,-82.33334 -2.70432,-6.96666 -8.37927,-22.50566 -12.61099,-34.53111 l -7.69405,-21.86444 -9.08573,-5.53389 c -4.99715,-3.04365 -13.19073,-9.25465 -18.20797,-13.80223 -5.01723,-4.54758 -9.46624,-8.26833 -9.88667,-8.26833 -0.42044,0 -0.76444,40.5 -0.76444,90 v 90.00001 h 53.92635 53.92634 z m -70.84151,-19.23285 c -3.40113,-11.5094 -23.98696,-125.10013 -23.1179,-127.56243 0.75419,-2.13682 2.34688,5.85403 14.25976,71.5443 9.21327,50.80395 11.3956,64.60486 8.85814,56.01813 z m 127.16251,18.06716 7.16313,-14.83236 -5.31818,-4.83431 c -2.92499,-2.65887 -13.13396,-11.56861 -22.68659,-19.79942 -21.23114,-18.29334 -52.42732,-49.96744 -60.77056,-61.70156 -3.38922,-4.76666 -8.73061,-13.46666 -11.86976,-19.33333 -6.44477,-12.04447 -7.34025,-12.97485 -11.53815,-11.98787 -1.65,0.38794 -3,0.19022 -3,-0.43938 0,-0.62959 -1.5,-1.82816 -3.33333,-2.66348 -1.83334,-0.83532 -3.33334,-0.96498 -3.33334,-0.28813 0,0.67686 3.21102,10.41399 7.13559,21.63809 12.56075,35.92312 33.53117,77.72853 58.55948,116.74077 l 7.91245,12.33334 h 16.95806 16.95806 z m 25.21727,5.83236 c 14.48968,-29.1322 33.45382,-70.03371 35.39225,-76.33334 2.18986,-7.11677 4.78442,-50.99417 2.91291,-49.26124 -0.43881,0.40632 -4.04473,8.50632 -8.01316,18 -7.76995,18.58806 -33.32116,75.43858 -45.3616,100.92791 l -7.40049,15.66667 h 8.99685 8.99685 z m 25.15545,-3.33334 c 4.54933,-13.80986 13.1243,-62.06933 10.60186,-59.66667 -0.38495,0.36667 -6.51205,13.56667 -13.61578,29.33334 -7.10374,15.76667 -14.3625,31.81667 -16.13058,35.66667 l -3.2147,7 h 9.14814 9.14814 z m 29.1842,-10.98849 c 8.16915,-43.61141 11.53613,-68.54054 11.61689,-86.01151 0.0735,-15.89136 -0.22046,-17.7521 -6.31846,-40 -3.51753,-12.83334 -6.89304,-23.84288 -7.50113,-24.46565 -1.1726,-1.20092 -1.89272,7.61264 -4.12334,50.46565 -1.6488,31.67554 -5.59472,71.94381 -9.40603,95.98903 -1.51205,9.53937 -3.07908,19.62674 -3.48229,22.41637 l -0.73311,5.07207 7.85189,-0.4054 7.85189,-0.4054 z m 18.18834,20.32183 c 0.39661,-1.65 1.75843,-11.53252 3.02626,-21.96116 2.1749,-17.88969 2.1776,-20.18769 0.0479,-40.66667 -1.24149,-11.93803 -3.00496,-25.60551 -3.91882,-30.37218 l -1.66158,-8.66666 -3.04217,24.66666 c -2.504,20.303 -6.40546,45.32955 -11.79591,75.66667 l -0.76997,4.33334 h 8.69658 c 7.91613,0 8.7613,-0.26923 9.4177,-3 z m 7.40847,-9.33334 -0.1595,-12.33333 -1.74034,10.66667 c -2.27387,13.93667 -2.2736,14 0.0593,14 1.64513,0 1.9717,-2.18837 1.8405,-12.33334 z m 27.74481,-16 c -1.7767,-60.58436 -13.74557,-124.0215 -30.31135,-160.6555 l -3.76325,-8.32216 -8.42202,0.84211 c -4.63211,0.46316 -8.64427,1.03039 -8.91591,1.2605 -0.27164,0.23011 2.55992,10.49613 6.29235,22.81338 3.73243,12.31725 8.56648,29.895 10.74235,39.06167 7.00432,29.50844 14.44402,79.7331 16.78787,113.33334 0.43482,6.23333 1.09094,13.28333 1.45804,15.66666 l 0.66745,4.33334 h 8.14768 8.14769 z m 31.0768,-2 c -0.005,-34.99806 -1.42318,-53.68777 -6.00726,-79.18182 -4.46597,-24.83715 -8.72077,-37.55859 -16.49741,-49.32555 -6.40115,-9.68569 -30.62341,-37.80444 -31.6669,-36.76095 -0.29497,0.29497 1.94785,6.77601 4.98404,14.40231 14.36463,36.08107 23.19278,89.59964 24.7761,150.19935 l 0.80996,31 h 11.80302 11.80301 z m 49.01255,4.66667 c 13.83832,-43.57727 21.65868,-72.75896 21.65868,-80.81942 0,-3.00364 -1.97034,-5.35844 -10.27649,-12.2817 -5.65207,-4.71105 -14.20207,-13.14603 -19,-18.7444 -4.79793,-5.59837 -8.80265,-10.09837 -8.89937,-10 -0.0967,0.0984 0.95112,7.07885 2.32856,15.51218 3.03769,18.5983 2.57083,22.50293 -0.71146,5.9503 -4.42201,-22.30025 -8.29177,-32.26188 -15.22202,-39.18493 -5.7435,-5.73752 -13.76479,-10.54286 -21.29001,-12.75427 -2.49101,-0.73202 -1.4122,1.32154 5.71383,10.87658 10.88092,14.58983 19.87619,32.4388 23.3945,46.42082 3.25266,12.92626 5.54067,44.8107 4.06814,56.6915 l -1.07415,8.66667 -0.18243,-10.70164 c -0.55527,-32.57234 -9.63855,-65.61714 -23.93886,-87.08901 -3.43397,-5.1561 -13.40105,-17.59888 -22.14908,-27.65062 -14.1493,-16.25796 -16.83284,-18.69637 -24.30406,-22.08398 -8.7021,-3.94572 -11.12377,-4.5468 -11.12377,-2.761 0,0.5759 6.62231,8.5259 14.71625,17.66667 8.09393,9.14077 17.66604,21.04931 21.27135,26.46343 16.94676,25.4491 23.36273,62.01301 22.46655,128.0343 l -0.45415,33.45672 17.42867,-7.7e-4 17.42866,-7.6e-4 z m 49.65868,24.6123 c 0,-5.29207 -22.17397,-79.88278 -23.38666,-78.67008 -0.27753,0.27752 -2.96852,8.57905 -5.98,18.44785 -3.01147,9.86879 -8.43594,27.1344 -12.05437,38.36802 -3.61843,11.23362 -6.57897,20.98362 -6.57897,21.66667 0,0.72099 10.06677,1.24191 24,1.24191 13.2,0 24,-0.47447 24,-1.05437 z m -248.18575,-46.6123 c 10.5862,-21.06628 12.35493,-31.2416 14.25372,-82 1.01764,-27.20356 2.09038,-25.41009 -12.59089,-21.05032 -19.21838,5.7071 -32.80944,7.27792 -62.14376,7.18242 -15.4,-0.0501 -32.17723,-0.74813 -37.28274,-1.55111 -5.1055,-0.80298 -9.52032,-1.22238 -9.8107,-0.932 -0.29038,0.29038 1.62334,4.06939 4.25271,8.3978 4.9793,8.19681 30.03826,38.20012 31.05544,37.18294 0.32026,-0.32025 -1.24613,-7.40296 -3.48085,-15.73934 -4.40836,-16.44488 -4.74267,-18.38335 -2.83247,-16.42373 0.6791,0.69667 3.64691,8.58421 6.59513,17.52787 6.39441,19.39794 7.86598,22.38398 13.87832,28.1611 l 4.60236,4.4223 0.88624,-13.75564 c 1.74668,-27.11073 2.41173,-32.26577 3.83459,-29.72327 0.82313,1.47085 1.01084,11.20754 0.49798,25.83084 l -0.82314,23.47014 16.98023,14.35861 c 9.33913,7.89724 18.86477,15.49861 21.16809,16.89193 2.30332,1.39333 4.58873,3.18195 5.07869,3.97472 1.41618,2.29143 1.81157,1.87289 5.88105,-6.22526 z m 26.95699,-60.08784 c 4.47364,-10.49832 9.31801,-23.09832 10.76527,-28 2.48412,-8.41338 5.08895,-36.2455 3.39224,-36.2455 -0.43314,0 -4.86931,2.99671 -9.85815,6.65935 -4.98883,3.66265 -10.10545,7.41265 -11.37025,8.33334 -2.05895,1.49878 -2.33805,5.32427 -2.66667,36.55091 -0.20186,19.18232 0.0764,34.18232 0.61833,33.33334 0.54194,-0.84898 4.6456,-10.13313 9.11923,-20.63144 z m -40.10458,-42.66023 c 23.27916,-4.89834 38.42551,-12.29212 50.20554,-24.50809 6.45794,-6.69694 12.46113,-15.33472 12.46113,-17.92991 0,-4.01745 -4.559,-1.29972 -14.3573,8.55874 -15.23067,15.3242 -32.64579,22.8637 -62.07252,26.87297 -15.80055,2.15276 -61.03643,1.80196 -74.69116,-0.57923 -27.269,-4.75531 -46.91225,-15.77896 -62.66511,-35.16717 -4.38942,-5.40239 -5.44939,-4.81191 -4.23759,2.36064 1.07933,6.38854 6.87965,14.09243 16.63569,22.09529 9.91629,8.1343 17.63687,12.05713 31.46437,15.98704 17.85653,5.075 27.4998,5.91022 62.59028,5.42108 25.60196,-0.35688 34.53256,-0.97896 44.66667,-3.11136 z m 63.98018,-6.8141 c 1.67122,-8.81228 1.7774,-25.43784 0.16247,-25.43784 -2.12686,0 -2.92302,4.27983 -3.70962,19.94153 -0.56598,11.26894 -0.37567,15.02211 0.71048,14.01163 0.81594,-0.7591 2.09244,-4.591 2.83667,-8.51532 z m -77.98018,-7.44086 c 15.29416,-2.27957 29.1679,-6.18808 38.1854,-10.75759 6.51485,-3.30132 21.59568,-16.42663 23.96873,-20.86071 2.05736,-3.84421 -1.44703,-8.14988 -10.24183,-12.58366 -8.56372,-4.31729 -15.01551,-11.5983 -16.69887,-18.84511 -1.59215,-6.85415 -1.48892,-22.15948 0.24883,-36.89416 1.82061,-15.4372 1.32083,-19.1148 -1.79978,-13.24357 -3.32473,6.25527 -26.59344,28.51988 -29.8082,28.5219 -0.65319,4.1e-4 -5.08762,2.40008 -9.85428,5.33259 -4.76667,2.93251 -9.69002,5.33217 -10.94079,5.33258 -1.25077,4.2e-4 -4.4845,-1.49925 -7.18606,-3.33258 -2.70157,-1.83333 -6.0916,-3.33333 -7.53341,-3.33333 -1.4418,0 -4.40411,1.5 -6.5829,3.33333 -5.59026,4.70389 -12.92534,4.5384 -18.71045,-0.42213 -2.40885,-2.06551 -6.55757,-5.06985 -9.21939,-6.67632 -6.07889,-3.66876 -22.7715,-21.14459 -27.85789,-29.16498 l -3.83884,-6.05322 -0.91901,3.66165 c -0.50546,2.01391 -0.29722,11.19883 0.46277,20.41093 2.01813,24.46278 -1.37103,34.81335 -13.46731,41.12949 -7.24294,3.78193 -19.54006,14.21669 -19.54006,16.58077 0,2.88455 8.72616,13.1702 16.91242,19.93494 6.80485,5.6232 19.59666,12.20577 28.45618,14.64334 19.411,5.34067 61.40828,6.94593 85.96474,3.28584 z m 96.80268,-44.33031 c 2.0199,-5.27763 1.74083,-14.0814 -0.5892,-18.58717 -2.40623,-4.65314 -12.34077,-14.0426 -17.89885,-16.9168 -4.26631,-2.20619 -23.1668,-7.75497 -23.90406,-7.01772 -0.24295,0.24295 3.47385,2.10587 8.25955,4.13982 10.40509,4.42223 13.14657,7.25125 3.24467,3.34828 -11.49382,-4.53044 -8.67665,-2.21593 5.38086,4.42075 10.81975,5.10812 14.08042,7.36856 17.96194,12.45203 4.1874,5.48407 4.74241,7.12476 4.74241,14.01921 0,8.62724 0.69361,9.65221 2.80268,4.1416 z m -268.44999,-4.9462 c 3.40352,-1.02855 2.76412,-3.38713 -0.91824,-3.38713 -3.61969,0 -9.43446,5.14406 -9.43446,8.34622 0,2.72148 0.12728,2.70018 3.66667,-0.61364 2.01667,-1.88815 5.02538,-3.8436 6.68603,-4.34545 z m 262.98064,2.57004 c 0,-9.6154 -10.17376,-20.57656 -22.3964,-24.12978 -3.92407,-1.14075 -7.38979,-1.81897 -7.70161,-1.50715 -0.31183,0.31182 4.37202,3.51733 10.40853,7.12335 11.31407,6.75866 17.02282,13.04784 17.02282,18.75358 0,1.72489 0.6,3.13616 1.33333,3.13616 0.73333,0 1.33333,-1.51927 1.33333,-3.37616 z M 172.45813,379.33455 c 2.68137,-1.12034 4.87521,-1.49892 4.87521,-0.84127 0,0.65764 -1.16987,1.50164 -2.59971,1.87555 -2.37948,0.62225 -8.59068,8.88524 -7.49931,9.97661 0.25791,0.25791 2.13894,-1.07878 4.18006,-2.97043 5.14136,-4.76485 9.27556,-5.51353 15.05966,-2.72723 2.67261,1.28745 8.4593,2.60655 12.8593,2.93133 6.42478,0.47424 8.84265,0.059 12.27955,-2.10865 5.15375,-3.25054 9.75407,-11.72997 9.63021,-17.75066 -0.0883,-4.29385 -0.11908,-4.31608 -1.45643,-1.05312 -5.48687,13.38731 -11.0631,18.2324 -19.42247,16.87587 -2.64039,-0.42848 -5.45249,-1.4502 -6.24912,-2.27048 -1.06521,-1.09685 0.18683,-1.25203 4.73243,-0.58656 3.79456,0.55553 7.26757,0.32328 8.99565,-0.60155 3.15475,-1.68838 8.61334,-11.43262 7.75869,-13.85022 -0.30469,-0.86188 -1.48895,0.63464 -2.6317,3.32562 -3.51122,8.26833 -8.85558,9.58989 -20.65111,5.10665 -8.27512,-3.14521 -16.32696,-3.41987 -21.52066,-0.73411 -5.27406,2.72733 -12.14205,10.9441 -12.07621,14.44784 0.0499,2.65599 0.49913,2.45172 4.45813,-2.0273 2.42145,-2.73949 6.59647,-5.89754 9.27783,-7.01789 z m 294.82281,-9.16173 c 1.52247,-18.27701 -1.94577,-24.80551 -21.69582,-40.83948 -9.90498,-8.0413 -11.87692,-21.0507 -5.4375,-35.87271 3.18503,-7.33116 2.46461,-8.30658 -1.88202,-2.54819 -4.25992,5.64352 -6.25007,12.99145 -6.25317,23.08757 -0.004,11.69474 2.54094,15.16109 21.3057,29.0243 6.74736,4.98488 12.01522,12.03427 12.01522,16.07863 0,1.62424 -1.46789,-0.18948 -3.66667,-4.53051 -3.05799,-6.03738 -5.1404,-8.12443 -12.54448,-12.57242 -11.47562,-6.89397 -14.30089,-9.50977 -17.28121,-16 -4.50126,-9.80235 -3.31628,-19.70611 6.10633,-51.03537 3.30555,-10.99063 6.02658,-29.84295 4.04021,-27.99206 -0.57407,0.53491 -1.49992,3.8582 -2.05744,7.38508 -0.55753,3.52689 -3.7613,13.75765 -7.1195,22.73502 -13.96607,37.33511 -10.89171,52.56636 14.06195,69.66699 7.97751,5.46695 15.79414,13.91462 15.79414,17.0692 0,1.03837 -2.05492,-0.80329 -4.56648,-4.09259 -3.56657,-4.671 -7.80052,-7.66765 -19.33596,-13.68537 -17.10612,-8.9238 -22.16817,-13.83239 -23.51297,-22.80013 -1.74773,-11.65469 0.11628,-20.12691 7.96422,-36.19857 4.04256,-8.27871 7.05671,-15.0522 6.69809,-15.0522 -0.35862,0 -4.17339,7.15502 -8.47727,15.90004 -8.72501,17.72829 -10.45133,25.45461 -8.15687,36.50696 2.00796,9.6723 7.73437,16.10458 20.89088,23.46599 15.98148,8.94206 20.69282,13.29272 25.90093,23.91803 2.52749,5.15644 4.97447,9.41292 5.43773,9.45883 0.46326,0.0459 1.26065,-4.93875 1.77196,-11.07704 z m -274.9307,-16.21571 c 1.29263,-1.69804 5.49263,-4.11601 9.33333,-5.37326 11.28099,-3.69282 19.10443,-8.15778 23.37772,-13.34201 4.9703,-6.02985 8.32298,-17.60409 8.10951,-27.99597 l -0.16254,-7.91253 -1.75143,10.40272 c -2.93562,17.43632 -8.821,24.48196 -25.92349,31.03411 -11.03923,4.22925 -18.8082,12.09938 -18.58826,18.8303 0.0742,2.2702 0.16402,2.26599 1.66667,-0.0782 0.87354,-1.36278 2.64586,-3.86709 3.93849,-5.56513 z m 8.91276,-19.28197 c 12.42415,-12.06144 14.83962,-15.12038 17.37885,-22.00846 4.01787,-10.89913 4.93532,-25.73821 2.24078,-36.24275 -2.58455,-10.07572 -10.15917,-28.42392 -11.73415,-28.42392 -1.90776,0 -1.30484,8.19579 1.67833,22.81434 3.11762,15.27745 2.85928,26.19306 -0.82826,34.99644 -2.9514,7.04595 -3.49638,5.66265 -1.22256,-3.10315 3.0368,-11.70718 2.44031,-20.22886 -2.17517,-31.07508 -5.38135,-12.64599 -6.09439,-18.74127 -3.32582,-28.43006 2.58187,-9.03541 5.39366,-13.67164 17.0686,-28.14357 12.17018,-15.08583 17.21733,-28.55558 16.82698,-44.90758 -0.15168,-6.35438 -0.28856,-6.04734 -2.01291,4.51532 -2.52364,15.45888 -8.58683,27.24144 -21.11252,41.02789 -14.35144,15.79596 -15.92595,19.30491 -15.99157,35.63878 -0.048,11.94611 0.35278,14.23503 3.8521,22 5.4581,12.1115 5.77658,19.42127 1.57694,36.19378 -1.91544,7.64987 -3.48261,14.46309 -3.48261,15.1405 0,2.4686 7.95062,-8.2148 12.04233,-16.1815 5.80263,-11.29792 6.04311,-25.00558 0.75164,-42.84498 -4.92106,-16.59064 -3.83407,-18.27636 1.55992,-2.41913 3.7297,10.96457 4.31277,14.48288 4.31277,26.02366 0,17.89214 -2.60495,23.71117 -18.02032,40.25436 -15.60263,16.74416 -19.3337,21.99231 -19.21883,27.03337 0.0922,4.04408 0.1515,4.00398 2.74997,-1.85826 1.76353,-3.97858 7.50368,-10.69791 17.08551,-20 z m -3.632,22.73223 c 3.13629,-1.42595 9.90234,-3.80449 15.03567,-5.28564 12.14953,-3.50558 18.34041,-8.64663 21.914,-18.19792 1.51397,-4.04644 2.7053,-8.68466 2.64741,-10.30715 -0.0681,-1.90721 -0.84223,-0.82908 -2.19012,3.05002 -4.18003,12.02975 -10.84281,17.5899 -26.35369,21.9924 -10.17199,2.88714 -14.90575,5.35108 -16.69165,8.68807 -1.75322,3.27591 -1.44163,3.27924 5.63838,0.0602 z m 114.36901,-18.41652 c 0,-7.23226 -1.34192,-9.85181 -9.5168,-18.57769 -8.91643,-9.51743 -8.62223,-12.58358 2.38833,-24.89069 6.58585,-7.36136 7.36179,-11.83783 3.01074,-17.36929 -3.35289,-4.26251 -10.07423,-7.95397 -12.66928,-6.95816 -2.19904,0.84385 -2.63009,14.87265 -0.66727,21.7166 1.00344,3.49879 0.75013,4.64567 -1.46984,6.65472 -4.80346,4.34707 -6.84996,10.02472 -6.72793,18.66551 0.0639,4.52751 0.85783,9.62751 1.76421,11.33333 2.06774,3.89156 17.04684,18.46227 17.77256,17.28802 1.30562,-2.11253 -1.16505,-8.47568 -4.2257,-10.88319 -1.84359,-1.45017 -2.75288,-2.63667 -2.02065,-2.63667 3.29757,0 8.3626,7.14098 8.40403,11.84849 0.0398,4.52561 0.16128,4.66102 2,2.23001 1.07668,-1.4235 1.9576,-5.21294 1.9576,-8.42099 z m -20,-16.32417 c -3.12725,-3.12725 -3.43282,-8.91865 -0.80271,-15.21339 2.86622,-6.85984 4.77932,-6.90941 2.72111,-0.0705 -1.00054,3.32454 -2.18911,6.64321 -2.64126,7.37481 -0.45215,0.73159 0.40529,3.41043 1.90542,5.95296 3.08745,5.23284 2.71321,5.85188 -1.18256,1.95612 z m 42.66667,22.66666 c 0,-1.46666 0.6,-2.66666 1.33333,-2.66666 0.73333,0 1.33333,0.84807 1.33333,1.88459 0,2.67765 15.54124,-13.83767 17.24944,-18.3306 0.77948,-2.05017 1.41723,-6.89824 1.41723,-10.77348 0,-5.56916 -0.81382,-8.25765 -3.88295,-12.82747 l -3.88295,-5.78157 2.54962,-6.46843 c 2.55207,-6.47465 3.26016,-13.63329 1.7403,-17.59399 -1.18978,-3.10051 -6.04586,-2.57145 -11.18261,1.21832 -5.72929,4.22694 -6.62922,5.70117 -6.65433,10.90092 -0.0162,3.36063 1.75802,6.16621 8.64625,13.6722 8.20402,8.93976 8.66667,9.79287 8.66667,15.98088 0,6.27194 -0.28381,6.76848 -7,12.24677 -3.85,3.14039 -8.03666,6.94626 -9.30368,8.45749 -1.26703,1.51124 -2.31703,2.08329 -2.33334,1.27124 -0.0163,-0.81205 3.57035,-4.80334 7.97035,-8.86952 7.47058,-6.90379 8,-7.78552 8,-13.32349 0,-4.50498 -0.98505,-7.29025 -4.0982,-11.58783 -5.00557,-6.90999 -6.71269,-6.37177 -1.9677,0.62037 1.86958,2.75498 3.39924,5.81898 3.39924,6.80888 0,0.9899 -3.02976,5.14538 -6.7328,9.23441 -8.94701,9.87959 -10.98183,16.05967 -8.42682,25.59364 0.99631,3.71774 3.15962,3.94596 3.15962,0.33333 z m -42.91047,-6.70248 c -6.75179,-5.78736 -7.61641,-8.21216 -10.20904,-28.63085 l -1.18508,-9.33333 -0.18104,9.60104 c -0.2774,14.71145 1.93634,22.82218 7.84218,28.73229 2.74801,2.75 6.11698,4.99613 7.48658,4.99139 1.8126,-0.006 0.79122,-1.4649 -3.7536,-5.36054 z m 61.10702,1.73844 c 3.97741,-2.54222 8.19191,-13.0185 10.05299,-24.98944 1.20634,-7.75949 1.20477,-10.45887 -0.007,-11.67042 -1.21258,-1.21257 -1.5856,-0.97642 -1.61727,1.0239 -0.13523,8.54066 -2.98115,22.86971 -5.39531,27.16513 -1.54818,2.75462 -4.55832,6.03828 -6.6892,7.29702 -2.13088,1.25874 -3.87433,2.83587 -3.87433,3.50472 0,1.38651 3.32338,0.35774 7.52989,-2.33091 z m -75.63849,-17.36929 c -0.63861,-2.75 -1.17543,-9.95 -1.19292,-16 -0.0214,-7.3871 -0.53579,-11 -1.56624,-11 -1.84608,0 -0.68084,22.84008 1.45135,28.44816 1.9534,5.13783 2.65644,4.35934 1.30781,-1.44816 z m 89.63274,-9.87486 -1.28363,-4.45847 -0.12025,5.5 c -0.0661,3.025 0.32975,7.525 0.87975,10 l 1,4.5 0.40388,-5.54153 c 0.22213,-3.04784 -0.17375,-7.54784 -0.87975,-10 z m -57.376,4.30287 -3.91769,-8.28395 3.27424,-7.40364 c 4.59844,-10.39789 3.28752,-11.55827 -3.26022,-2.88585 -7.46983,9.89372 -7.36427,13.24009 0.67515,21.40224 3.43912,3.49162 6.45393,6.14742 6.69958,5.90178 0.24564,-0.24565 -1.31633,-4.17441 -3.47106,-8.73058 z m 23.07615,5.76267 c 1.15997,-0.44512 2.10905,-1.60971 2.10905,-2.58798 0,-0.97826 0.6927,-2.20677 1.53934,-2.73002 1.04491,-0.64579 1.17683,-0.34986 0.41072,0.92131 -0.91818,1.5235 -0.68208,1.50998 1.26623,-0.0725 5.61594,-4.56153 5.05882,-11.40001 -1.88289,-23.11172 -4.35102,-7.34084 -4.88776,-4.99293 -1.28067,5.60218 2.61818,7.69038 2.88106,9.80791 1.57382,12.67699 -2.2292,4.89256 -4.50166,4.44028 -2.76212,-0.54975 1.18436,-3.39746 0.79257,-5.27592 -2.62248,-12.5737 -2.81301,-6.01127 -5.22641,-9.20606 -8.06219,-10.6725 -2.22603,-1.15113 -4.41476,-2.09296 -4.86384,-2.09296 -1.25749,0 -8.65991,16.96708 -8.56743,19.63739 0.045,1.29944 1.49507,5.36261 3.22236,9.02928 3.52204,7.47654 4.47326,4.9255 1.9298,-5.17549 -1.11892,-4.44366 -1.02166,-6.68991 0.44413,-10.25709 l 1.8768,-4.56742 0.94962,5 c 0.5223,2.75 1.46375,5 2.09211,5 1.37586,0 4.05277,-7.28779 4.11355,-11.19897 0.0239,-1.54057 1.3349,0.49897 2.91325,4.5323 1.90075,4.85721 2.8447,10.14711 2.79562,15.66667 -0.0408,4.58333 0.0992,8.33333 0.31103,8.33333 0.21182,0 1.33421,-0.36419 2.49419,-0.80932 z m 114.00045,-4.19068 c -0.63862,-2.75 -1.18462,-8 -1.21334,-11.66667 -0.0376,-4.80419 -0.41331,-6.10792 -1.34473,-4.66666 -1.7897,2.76937 -1.65774,13.82919 0.21402,17.93726 2.29973,5.04735 3.67076,4.10921 2.34405,-1.60393 z m -76.48893,-15 -2.00499,-6 0.73342,8 c 0.40338,4.4 1.13895,9.5 1.63459,11.33333 0.76775,2.8398 0.95602,2.54368 1.27157,-2 0.20372,-2.93333 -0.53184,-8.03333 -1.63459,-11.33333 z m -99.39292,-5.52574 c 0.83105,-4.30044 3.6844,-11.22325 6.65786,-16.15332 5.1749,-8.5801 8.8061,-19.23725 7.6915,-22.57365 -0.32105,-0.96101 -1.97011,2.45271 -3.66458,7.58604 -2.98026,9.0286 -6.69433,16.24815 -6.69433,13.0127 0,-0.86935 1.22199,-4.68086 2.71553,-8.47002 3.4895,-8.85293 2.2468,-10.34043 -1.44646,-1.73139 -3.74619,8.73244 -7.76482,25.86932 -8.56449,36.52205 -0.71338,9.50332 0.43582,6.65466 3.30497,-8.19241 z m 113.34757,-8.41168 c -2.31348,-6.08494 -2.6717,-3.34803 -0.95747,7.31555 l 1.60035,9.9552 0.39443,-6.7525 c 0.21693,-3.71388 -0.24985,-8.44709 -1.03731,-10.51825 z m -120.72097,-0.77737 c 0.78219,-2.57765 0.64312,-2.94935 -0.64572,-1.72579 -2.00572,1.90414 -3.60114,10.56084 -2.78424,15.10725 0.43024,2.39446 0.85723,1.44204 1.516,-3.38146 0.50438,-3.69314 1.36567,-8.19314 1.91396,-10 z m 0.27466,13.13146 c -0.42563,-1.06365 -0.74157,-0.74771 -0.80555,0.80555 -0.0579,1.40556 0.25724,2.19306 0.70029,1.75 0.44306,-0.44305 0.49042,-1.59305 0.10526,-2.55555 z M 378.024,300.33334 c -0.51247,-2.01666 -2.09567,-8.97616 -3.51823,-15.46555 -1.42256,-6.48938 -3.7805,-14.13939 -5.23988,-17 -2.91924,-5.72219 -4.54689,-6.99057 -2.68442,-2.09189 2.76293,7.26704 5.20935,16.91887 4.11731,16.24395 -0.65033,-0.40193 -2.8736,-5.51926 -4.94059,-11.37185 -2.067,-5.85258 -4.24861,-10.64262 -4.84803,-10.64453 -1.53708,-0.005 -0.25888,3.67928 7.91051,22.80038 3.94864,9.24211 7.17934,17.79211 7.17934,19 0,1.20789 0.66505,2.19616 1.47788,2.19616 0.94922,0 1.14457,-1.31161 0.54611,-3.66667 z m 15.30935,-5.83301 c 0,-2.20493 -0.59241,-5.11589 -1.31647,-6.46881 -1.5057,-2.81342 -9.42396,-8.03397 -12.17425,-8.02653 -1.01344,0.003 0.25738,1.25497 2.82405,2.78272 6.43285,3.82903 8,6.22137 8,12.2125 0,3.09859 0.53222,4.82825 1.33333,4.33313 0.73334,-0.45322 1.33334,-2.62808 1.33334,-4.83301 z m -138.66668,0.46302 c 0,-4.86396 3.34203,-9.46732 8.50441,-11.71411 2.60996,-1.13592 3.26736,-1.83098 1.76272,-1.86371 -3.51143,-0.0764 -9.9774,3.58177 -11.56093,6.54062 -1.75776,3.28441 -1.7852,10.74053 -0.0395,10.74053 0.73333,0 1.33333,-1.6665 1.33333,-3.70333 z m 11.59066,-3.93796 c -0.33806,-1.29729 -0.63688,-0.55871 -0.66406,1.64129 -0.0272,2.2 0.24942,3.26142 0.61465,2.35871 0.36523,-0.90271 0.38747,-2.70271 0.0494,-4 z m -2.9525,-13.108 c 2.58235,-0.48445 4.69518,-1.48905 4.69518,-2.23244 0,-1.95291 -8.03762,-0.11852 -11.86696,2.70836 -1.76017,1.29937 -4.15491,3.84244 -5.32166,5.65127 -1.83683,2.84765 -1.45612,2.71637 2.83845,-0.97881 2.7279,-2.34716 7.07265,-4.66393 9.65499,-5.14838 z m 128.2875,-0.0308 c -2.41624,-2.07966 -5.39514,-3.2199 -8.41203,-3.2199 -4.61312,0 -5.34935,2.609 -0.76827,2.72255 1.24006,0.0307 4.35465,1.17644 6.92132,2.546 5.94392,3.17166 7.10293,2.12056 2.25898,-2.04865 z m -144.30154,-2.2199 c 3.16086,-4.49697 5.03615,-12.83926 4.05811,-18.05264 -1.13107,-6.02913 -2.62742,-4.28532 -5.3203,6.20013 -2.46864,9.61237 -2.03996,12.30038 0.65795,4.12562 2.66653,-8.07968 4.18299,-7.78083 1.78401,0.35157 -2.4451,8.28875 -2.42897,8.26573 -5.07971,7.24855 -2.31059,-0.88666 -2.73725,-6.91177 -0.84238,-11.89566 2.847,-7.48818 5.23784,-17.00288 4.09498,-16.29655 -1.82831,1.12996 -6.64344,17.57098 -6.64344,22.68371 0,8.76944 3.29675,11.31759 7.29078,5.63527 z m 160.00832,-0.93379 c 1.11883,-2.16358 1.98321,-6.21358 1.92084,-9 -0.11024,-4.9253 -0.16117,-4.86879 -1.83109,2.03154 -3.2261,13.33069 -4.71197,11.97602 -8.51638,-7.76442 l -1.41329,-7.33333 0.53877,8.66666 c 0.98342,15.8195 5.03293,21.65336 9.30115,13.39955 z m -69.40597,-3.19079 c 2.87456,-0.86216 5.46719,-2.2897 5.76139,-3.17232 0.85101,-2.55302 -5.87433,-3.7031 -21.65452,-3.7031 -11.21435,0 -15.60821,0.52408 -18.66667,2.2265 l -4,2.2265 3.33334,1.24872 c 1.83333,0.6868 4.23333,1.56229 5.33333,1.94554 3.81063,1.32766 24.69061,0.78854 29.89313,-0.77184 z m 66.7406,-6.54209 c -0.5137,-3.11667 -1.47877,-6.56667 -2.14461,-7.66667 -1.16645,-1.92706 -0.45658,5.50627 1.05049,11 1.25154,4.56224 2.01309,2.24212 1.09412,-3.33333 z m 46.01201,-22.20297 c -1.77128,-9.83764 -6.13885,-16.75043 -18.79314,-29.74495 l -10.76271,-11.05208 8.84103,12.66666 c 11.05792,15.84284 16.48316,26.82341 17.47251,35.36395 0.4228,3.64983 1.12678,8.13606 1.5644,9.96939 1.52711,6.39754 3.07318,-9.45372 1.67791,-17.20297 z m -162.54523,9.83707 c 7.64472,-4.78458 15.24313,-9.04803 16.88536,-9.47433 l 2.98586,-0.7751 -2.65253,-3.37215 c -3.15885,-4.01582 -3.42433,-9.51419 -0.63208,-13.09102 1.91919,-2.45845 1.97877,-2.4044 1.18879,1.0785 -0.76784,3.38526 -0.51706,3.66666 3.26764,3.66666 2.25462,0 6.2671,1.03375 8.91661,2.29721 4.55905,2.17406 5.03188,2.17406 8.81996,0 2.20146,-1.26346 6.30403,-2.29721 9.11682,-2.29721 5.65474,0 6.9146,-1.63899 5.07548,-6.60285 -1.19538,-3.22638 -1.17526,-3.23685 1.52478,-0.79335 1.50487,1.36189 2.73613,3.92933 2.73613,5.70542 0,3.22626 -5.62018,10.00863 -9.31387,11.23985 -1.42544,0.47515 -0.48492,2.06895 3.47256,5.88462 2.98511,2.87814 6.07558,6.42798 6.86772,7.88854 0.79214,1.46056 1.87002,2.2258 2.39529,1.70053 0.52526,-0.52527 -1.36506,-3.78639 -4.20072,-7.24694 -6.26606,-7.6469 -4.76302,-7.175 13.33826,4.18775 7.6254,4.78671 14.66905,8.69535 15.65256,8.68588 2.2957,-0.0221 13.18579,-16.75894 18.20746,-27.98278 2.13266,-4.76667 5.83097,-14.36556 8.21848,-21.33087 5.37354,-15.67681 5.11979,-23.70744 -1.23094,-38.95695 -4.84117,-11.62471 -10.63937,-17.73884 -18.16027,-19.14977 -5.34751,-1.0032 -17.30615,0.087 -22.12244,2.0168 -2.74853,1.10128 -2.48294,1.26281 2.20925,1.34371 8.40386,0.14489 14.39257,2.34935 20.43651,7.52273 7.84411,6.71427 9.18012,9.55169 5.28381,11.22179 -1.67951,0.7199 -4.72726,2.64901 -6.77278,4.2869 -3.03813,2.4327 -5.60163,3.02492 -14,3.23426 -9.25667,0.23073 -11.21068,-0.19599 -19.61421,-4.2834 -5.13333,-2.49681 -9.71528,-4.54691 -10.1821,-4.55576 -0.46682,-0.009 -1.07688,10.44395 -1.35569,23.22847 -0.47949,21.98659 -1.12956,26.53067 -3.46221,24.20125 -1.75837,-1.75593 -2.04545,-47.86525 -0.3489,-56.0375 1.82535,-8.79268 7.27063,-15.88723 13.74888,-17.91316 7.33836,-2.29491 26.43434,-3.17992 34.88751,-1.61686 5.33083,0.98571 9.6183,2.80812 13,5.52573 4.96828,3.99262 5.0452,4.00788 5.00394,0.99213 -0.13163,-9.61983 -5.42555,-32.74555 -9.29573,-40.60699 -5.65325,-11.4834 -18.52884,-21.81543 -39.8221,-31.955313 -11.29235,-5.377438 -17.38221,-9.21814 -22.40673,-14.13131 l -6.8998,-6.746882 -10.21938,8.221067 c -5.62065,4.521587 -17.28092,13.119124 -25.91171,19.105639 -15.01186,10.412587 -15.89805,11.2929 -20.43654,20.301099 -6.13234,12.17174 -11.24931,29.47639 -12.43119,42.03998 l -0.93666,9.9568 6.35221,-5.59144 c 7.58608,-6.67753 10.63401,-7.37036 29.81448,-6.77722 12.26934,0.37942 15.34074,0.9099 18.47539,3.19103 4.26546,3.10405 9.30698,12.32984 10.52701,19.26404 l 0.82106,4.66667 -2.72285,-4.24824 c -3.38234,-5.27717 -7.20846,-7.54219 -9.26556,-5.4851 -1.00403,1.00403 -1.05428,2.26165 -0.15735,3.9376 1.94944,3.64255 0.29728,3.01823 -5.78099,-2.18455 -8.77001,-7.50679 -20.99238,-8.05582 -29.79914,-1.33858 -2.58738,1.97349 -4.44984,3.84265 -4.1388,4.15369 0.31104,0.31104 3.46293,-0.67645 7.00422,-2.19442 12.78019,-5.47823 21.21771,-4.73372 27.71482,2.44551 1.82268,2.01404 2.10464,3.30799 1.11928,5.1365 -5.65636,10.49637 -22.59723,13.60194 -32.40774,5.94093 -1.73486,-1.35475 -4.5043,-2.88615 -6.1543,-3.40311 -4.4078,-1.38101 -3.73063,-3.47417 3.39433,-10.49199 6.33954,-6.24421 11.87011,-8.80525 19.59687,-9.07472 3.87158,-0.13501 3.82624,-0.19997 -1.32453,-1.89753 -11.42312,-3.76476 -22.66447,-0.82452 -29.09845,7.61087 -6.47395,8.48778 -10.92552,35.42417 -7.58217,45.87956 4.14742,12.96991 25.07331,52.54691 27.78358,52.54691 0.60393,0 7.35283,-3.91465 14.99755,-8.69923 z m 25.16616,-3.97609 c 5.39474,-5.35853 4.78559,-6.87546 -1.87787,-4.67632 -6.23961,2.05926 -12.72213,7.57327 -12.72213,10.82139 0,2.44449 0.23684,2.46794 5,0.49504 2.75,-1.13905 7.07,-4.1271 9.6,-6.64011 z m 94.74781,5.9816 c 1.08424,-2.02592 0.88453,-4.67928 -0.8056,-10.70284 -1.23598,-4.40502 -2.70989,-8.29505 -3.27534,-8.64451 -0.56545,-0.34947 -0.18894,2.51681 0.83669,6.3695 2.58236,9.7004 2.29918,12.00378 -0.69726,5.67157 -1.38808,-2.93333 -2.57234,-4.29547 -2.6317,-3.02698 -0.10656,2.2771 3.73607,13.02698 4.65659,13.02698 0.26124,0 1.12372,-1.21217 1.91662,-2.69372 z m -78.98297,0.24181 c 1.86853,-1.18586 -0.52607,-3.91257 -5.84752,-6.65854 -2.3247,-1.19958 -3.31338,-0.92369 -5.66667,1.58127 -4.44138,4.72763 -3.61198,6.1983 3.48268,6.17543 3.48333,-0.0112 7.09751,-0.5054 8.03151,-1.09816 z m 13.70989,-2.74178 c -1.67417,-3.12821 -10.87525,-9.78357 -11.98778,-8.67104 -0.40221,0.40221 2.14813,3.45187 5.66743,6.77701 6.49785,6.13937 8.99247,6.88694 6.32035,1.89403 z m -6.7414,1.33181 c 0,-1.70951 -9.46017,-9.78906 -10.38221,-8.86701 -0.86512,0.86512 7.64483,10.06223 9.31043,10.06223 0.58948,0 1.07178,-0.53785 1.07178,-1.19522 z m -91.5025,-9.47145 c 0.45643,-1.83334 -0.32429,-0.93334 -1.73493,2 -1.41064,2.93333 -2.58528,5.93333 -2.6103,6.66667 -0.0696,2.03947 3.40532,-4.89135 4.34523,-8.66667 z m -48.59122,-4.77896 c 0.10584,-4.64408 6.53234,-14.45361 18.82884,-28.74067 8.36497,-9.7191 13.87224,-17.73066 15.95619,-23.21186 1.82203,-4.79231 0.97236,-4.07234 -4.40372,3.73149 -2.65228,3.85 -7.33052,9.4 -10.39609,12.33333 -5.52034,5.28221 -5.50888,5.25175 1.19523,-3.17702 6.80598,-8.55685 17.05671,-26.45732 15.84482,-27.66921 -0.35761,-0.35761 -3.33733,2.8365 -6.62159,7.09802 -3.28427,4.26151 -10.29848,12.84821 -15.58714,19.08154 -12.08492,14.24355 -15.67241,20.31112 -17.55674,29.69388 -1.65436,8.23766 -0.38552,22.48793 1.57061,17.63946 0.59174,-1.46667 1.11805,-4.5172 1.16959,-6.77896 z m 4.12336,-16.22104 c 0.0163,-0.55 1.25243,-2.5 2.74693,-4.33334 l 2.71727,-3.33333 -2.11449,4.33333 c -2.00933,4.11781 -3.41442,5.51603 -3.34971,3.33334 z m 258.09068,14.66666 c -1.01133,-9.95184 -5.0543,-20.00016 -10.76333,-26.75097 -2.05475,-2.4297 -8.33462,-7.91833 -13.95526,-12.19696 -15.74522,-11.98582 -19.20772,-16.61568 -22.72408,-30.3854 -1.94256,-7.60683 -3.20191,-7.20043 -2.06588,0.66667 1.77943,12.32268 6.40297,19.71853 20.93732,33.49145 14.8986,14.11809 22.49566,24.55325 25.04427,34.40025 2.42983,9.38814 2.57028,9.77496 3.54892,9.77496 0.49096,0 0.48107,-4.05 -0.022,-9 z m -45.60548,-7.53642 c 0.44216,-1.7617 0.4322,-5.0617 -0.0221,-7.33334 -1.51233,-7.56164 -4.49272,-4.03765 -4.49272,5.31215 0,5.94499 3.17346,7.36568 4.51484,2.02119 z m -174.071,-2.03696 c 0.24411,-1.66715 0.0452,-4.61943 -0.442,-6.56062 -0.85443,-3.40434 -0.95287,-3.43776 -2.77717,-0.94288 -1.97521,2.70127 -2.55435,8.96943 -0.97467,10.54911 1.61653,1.61653 3.73663,0.0769 4.19384,-3.04561 z m 214.41423,-21.91283 c -4.05698,-8.16065 -6.37086,-10.84125 -16.26871,-18.84712 -6.34646,-5.13333 -14.21183,-12.58311 -17.47858,-16.55506 -5.24103,-6.37242 -5.83166,-6.76443 -5.0222,-3.33333 1.94353,8.23808 8.09422,17.12784 17.81177,25.74386 13.00419,11.5301 19.71902,18.55904 22.42868,23.47786 1.8424,3.3445 2.28996,3.59257 2.73111,1.51379 0.29019,-1.36742 -1.60074,-6.76742 -4.20207,-12 z m -252.2884,-1.89021 c 3.3852,-4.60703 9.3024,-11.80703 13.14933,-16 9.72038,-10.59475 13.84691,-16.23957 16.3473,-22.36201 1.95868,-4.79603 0.83582,-3.96386 -12.69051,9.4051 -14.74043,14.56892 -20.80337,23.52707 -23.46269,34.66667 -1.1614,4.86495 -1.03223,4.75416 6.65657,-5.70976 z m 249.3834,-21.87053 c -2.98947,-9.13665 -5.75379,-14.64639 -15.93097,-31.75305 C 422.53108,131.35158 411.61985,111.16399 408.79917,104 c -1.29932,-3.3 -4.345,-9.299997 -6.7682,-13.33333 -2.42319,-4.033334 -6.84195,-12.211319 -9.81946,-18.1733 -6.22911,-12.47276 -12.6886,-18.833561 -25.13106,-24.747086 -8.97258,-4.264395 -22.08855,-6.42989 -23.64927,-3.904583 -0.52549,0.850266 0.12328,1.900928 1.48432,2.403796 1.32982,0.49133 2.71784,1.309704 3.08451,1.818609 0.36667,0.508905 4.26667,2.774261 8.66667,5.034125 4.4,2.259863 10.55,5.671259 13.66667,7.58088 3.11666,1.90962 5.66666,2.950864 5.66666,2.313875 0,-1.531463 -6.05167,-5.944827 -13.04091,-9.510467 -6.19525,-3.160581 -7.53304,-4.808332 -2.28337,-2.81241 12.79234,4.86364 24.26365,14.24187 28.45256,23.261043 17.44952,37.570738 40.83888,81.461288 46.43139,87.129318 0.93727,0.94992 4.84777,7.97192 8.69001,15.60444 3.84224,7.63252 7.21902,13.64418 7.50396,13.35924 0.28493,-0.28493 -0.52533,-3.70693 -1.80057,-7.60443 z M 223.54107,160.25828 c 3.04758,-4.04341 6.89806,-9.80565 8.55663,-12.80497 2.77557,-5.0193 2.80374,-5.2676 0.35395,-3.11997 -3.25592,2.85433 -5.40084,3.08361 -3.11831,0.33333 1.00545,-1.21149 1.11269,-2 0.27201,-2 -0.76332,0 -2.75813,2.25 -4.43292,5 -1.67479,2.75 -7.04406,9.8 -11.93172,15.66667 -8.66639,10.40229 -11.90794,15.4934 -14.6385,22.99095 -1.53109,4.20406 15.69136,-13.79678 24.93886,-26.06601 z m 217.83864,14.81084 c -3.07625,-5.72134 -6.68458,-11.60245 -8.01852,-13.06911 -3.57633,-3.93217 -16.60508,-25.88115 -23.43373,-39.47781 -3.27482,-6.52054 -6.23319,-11.85553 -6.57416,-11.85553 -3.42027,0 9.26898,28.21568 21.2026,47.14586 8.25059,13.08784 20.73799,29.33804 21.75962,28.31641 0.36155,-0.36155 -1.85956,-5.33847 -4.93581,-11.05982 z m -167.50393,4.26175 c -1.20213,-1.83469 -1.90416,-4.8086 -1.56005,-6.60869 0.52322,-2.73704 0.25776,-3.07601 -1.62136,-2.07033 -5.33082,2.85297 -5.63862,4.87753 -1.29694,8.53081 5.23718,4.4068 7.31371,4.47552 4.47835,0.14821 z m 100.83522,-0.02 c 3.64229,-1.84569 6.62235,-3.90483 6.62235,-4.57588 0,-1.36685 -6.06923,-5.84464 -9.69752,-7.15469 -1.98719,-0.7175 -2.14665,-0.44715 -1,1.69538 2.09992,3.92374 1.63015,7.79168 -1.30248,10.72432 -3.4732,3.47319 -2.62072,3.36395 5.37765,-0.68913 z m -81.4732,-2.29992 4.03961,-4.32238 -3.24717,-3.01096 c -1.78595,-1.65602 -4.1605,-3.01095 -5.27679,-3.01095 -1.69587,0 -1.77283,0.56357 -0.46801,3.42732 1.15854,2.54273 1.18106,4.43546 0.0872,7.33333 -1.92643,5.1037 -0.15189,4.95183 4.86513,-0.41636 z m 62.67503,1.49282 c -0.83288,-1.55626 -1.16728,-4.56479 -0.74311,-6.68563 0.76873,-3.84367 0.7592,-3.84986 -2.96303,-1.92502 -3.75467,1.94161 -7.70468,5.80977 -6.73001,6.59054 0.49215,0.39425 10.74934,4.63264 11.57024,4.78097 0.20914,0.0378 -0.3012,-1.2046 -1.13409,-2.76086 z m 2.80762,-14.51825 c 6.14806,-1.6555 13.89781,-0.0489 21.27956,4.41162 3.837,2.31852 4.32999,2.4017 2.77296,0.46784 -1.04153,-1.29361 -4.53633,-3.9007 -7.76621,-5.79354 -5.30037,-3.10622 -6.78894,-3.36469 -15.27865,-2.65294 -6.94745,0.58245 -10.75516,1.68132 -14.56711,4.20395 -2.83855,1.87846 -5.16099,3.72798 -5.16099,4.11004 0,1.01298 5.04036,-1.84643 6.00443,-3.40633 0.45079,-0.72939 1.48879,-1.32616 2.30668,-1.32616 0.81788,0 0.304,1.35 -1.14196,3 -6.10044,6.96126 -6.13162,7.84383 -0.11538,3.26657 3.51291,-2.67268 8.76291,-5.49915 11.66667,-6.28105 z M 220.39422,144.33334 c 2.62529,-4.21667 9.46057,-13.22045 15.18952,-20.00841 5.72895,-6.78795 11.80281,-14.88795 13.49747,-18 l 3.08119,-5.65826 -3.46071,4 c -6.25675,7.23174 -12.09599,13.30038 -14.75371,15.33333 -2.48218,1.89868 -2.51434,1.86491 -0.63475,-0.66666 1.08894,-1.46667 4.16468,-5.21677 6.83497,-8.33356 5.07668,-5.92556 15.24093,-24.055098 14.11669,-25.179336 -0.35761,-0.357609 -3.33732,2.836497 -6.62159,7.098014 -3.28426,4.261517 -10.29848,12.848212 -15.58714,19.081542 -11.5149,13.57172 -15.45403,19.97683 -17.25971,28.06466 -1.11328,4.98655 -0.82051,11.93535 0.50288,11.93535 0.17691,0 2.46961,-3.45001 5.09489,-7.66667 z M 218.8541,136 c 0,-1.1 0.51566,-3.2 1.14591,-4.66666 0.72228,-1.68085 1.1459,-1.92731 1.1459,-0.66667 0,1.1 -0.51565,3.2 -1.1459,4.66667 -0.72229,1.68085 -1.14591,1.9273 -1.14591,0.66666 z m 2.50889,0.33334 c 0.0163,-0.55 1.25242,-2.5 2.74692,-4.33334 l 2.71728,-3.33333 -2.1145,4.33333 c -2.00933,4.11781 -3.41441,5.51603 -3.3497,3.33334 z m 212.59591,-6.2761 c -1.10945,-4.25946 -2.83827,-9.31484 -3.84182,-11.23419 -1.00356,-1.91934 -3.44435,-9.18971 -5.42397,-16.15638 -1.97963,-6.966667 -4.66982,-15.066667 -5.97822,-18.000001 -1.30839,-2.933333 -3.08518,-7.535338 -3.94842,-10.226677 -0.86324,-2.691339 -2.43884,-5.614806 -3.50133,-6.496593 -2.55122,-2.117326 -2.49009,-1.777136 1.40154,7.800232 1.83333,4.511861 3.33333,9.6612 3.33333,11.442975 0,4.512957 7.57443,27.244974 9.82961,29.500154 1.01963,1.01963 3.51071,6.39662 5.53573,11.94886 2.02501,5.55224 3.89084,9.88598 4.14629,9.63054 0.25544,-0.25544 -0.44329,-3.94946 -1.55274,-8.20892 z m -191.27592,-2.74439 c 8.05707,-10.12546 12.92602,-20.34006 14.99277,-31.453452 1.43951,-7.740567 1.92104,-8.508437 7.59726,-12.114798 3.33318,-2.117726 7.56033,-4.218986 9.39367,-4.669467 1.83333,-0.450481 3.66108,-1.314279 4.06166,-1.919551 0.40059,-0.605273 4.79178,-2.574366 9.75821,-4.375763 10.25496,-3.719627 19.21313,-10.44932 23.66786,-17.780135 1.67099,-2.749825 3.65247,-5.417059 4.40327,-5.927185 0.75081,-0.510127 0.88748,-1.405128 0.30371,-1.988893 -0.58376,-0.583764 -1.69219,0.06579 -2.46316,1.443446 -5.92109,10.580395 -19.08085,18.633733 -38.39822,23.498446 -5.78066,1.45575 -13.22734,5.112644 -16.37612,8.041942 -1.4003,1.302689 -2.93027,5.712642 -3.72548,10.738195 -1.64564,10.400125 -7.13849,22.522915 -13.79018,30.435055 -2.73145,3.24904 -6.12643,8.18145 -7.5444,10.9609 -3.89827,7.64125 0.0317,5.27494 8.11915,-4.88874 z m 185.45685,1.7602 c -2.6562,-7.72039 -18.71777,-40.665596 -27.34703,-56.093745 -5.23964,-9.367904 -11.31559,-15.003158 -9.44549,-8.760406 0.79371,2.649568 7.17064,14.965324 17.83659,34.447771 1.40516,2.56667 4.20407,8.26667 6.21979,12.66667 4.58715,10.01304 13.98333,26.39077 14.71884,25.65526 0.30308,-0.30308 -0.58913,-3.86508 -1.9827,-7.91555 z M 221.68099,117.92518 c 3.26309,-4.44116 9.95781,-12.54116 14.87715,-18.000004 4.91933,-5.458845 10.49472,-12.373158 12.38975,-15.36514 3.33103,-5.259221 11.88843,-11.177525 19.05212,-13.176464 1.83333,-0.511569 8.73333,-3.085322 15.33333,-5.719451 14.68115,-5.859398 23.6301,-12.077893 27.32999,-18.991202 1.52529,-2.850027 1.51574,-2.852015 -2.23241,-0.465055 -2.07033,1.318465 -4.06424,2.727629 -4.43091,3.131474 -1.2902,1.421017 -28.84362,11.993997 -31.25663,11.993997 -0.66003,0 -2.14731,0.838413 -3.30505,1.863139 -1.15774,1.024726 -4.73302,3.325649 -7.94505,5.113163 -3.21204,1.787514 -12.98647,10.399102 -21.72095,19.136863 -15.77637,15.78229 -21.8469,24.66483 -24.52589,35.88684 -1.15747,4.84854 -1.01103,4.72545 6.43455,-5.40816 z M 397.446,106.33334 c -2.70799,-7.035667 -6.50775,-12.726577 -12.43923,-18.630266 -6.81771,-6.785773 -12.62061,-9.875737 -26.60488,-14.166733 -17.45349,-5.35551 -23.94088,-9.724209 -31.99861,-21.54831 -1.70548,-2.502664 -2.28064,-2.773596 -2.33333,-1.09914 -0.0385,1.222222 0.40562,2.422222 0.98685,2.666666 0.58124,0.244445 2.43009,2.694302 4.10855,5.444127 4.44597,7.283809 13.41431,14.056087 23.42029,17.685405 20.86714,7.568823 38.56531,20.229899 42.45795,30.373951 0.48,1.25086 1.47671,2.2743 2.21491,2.2743 0.84513,0 0.91456,-1.111 0.1875,-3 z m -9.22134,-4 c -1.48714,-2.383337 -4.69606,-5.47847 -7.13093,-6.878077 -4.01704,-2.309061 -3.81426,-1.907731 2.18949,4.333333 3.6391,3.782944 6.84802,6.878074 7.13094,6.878074 0.28291,0 -0.70236,-1.95 -2.1895,-4.33333 z M 240.0932,79.632434 c 4.34874,-4.96883 7.90681,-9.806576 7.90681,-10.750546 0,-0.94397 1.8,-3.440819 4,-5.548553 5.15683,-4.940562 5.03912,-6 -0.66667,-6 -8.85246,0 -5.04941,-6.327302 10.58948,-17.618148 C 278.1404,28.006536 290.686,23.463304 306.33491,23.6319 c 6.2688,0.06754 10.68025,-0.401377 10.25464,-1.090019 -1.19599,-1.935164 -20.63256,-1.394475 -29.30941,0.815333 -22.32631,5.686035 -43.78546,23.184423 -55.44768,45.21358 l -4.28594,8.095875 6.19695,-5.666667 c 3.40833,-3.116666 6.92169,-5.666666 7.80748,-5.666666 0.88579,0 3.076,-1.350001 4.86714,-3.000001 2.37441,-2.187305 1.86957,-0.923135 -1.86358,4.66659 -2.81611,4.216624 -6.14001,7.990265 -7.38645,8.385869 -4.39242,1.394099 -13.80655,14.685192 -17.19183,24.271826 -1.38276,3.91579 2.86034,-0.307951 20.11697,-20.025186 z m 170.72344,0.13678 c -1.38798,-4.034248 -3.43309,-9.093743 -4.54468,-11.243324 -1.74414,-3.372795 -1.76422,-4.259605 -0.14651,-6.471948 2.39377,-3.273678 2.38732,-3.309097 -1.45921,-8.016242 -2.78889,-3.41288 -3.13045,-3.551543 -2.4632,-1 0.71841,2.747219 0.32448,2.962302 -5.42559,2.962302 -5.19983,0 -8.29058,-1.261245 -19.15551,-7.816798 -20.09108,-12.122329 -26.13598,-14.84987 -32.91094,-14.84987 -3.32438,0 -6.04432,0.508312 -6.04432,1.129581 0,0.62127 -1.3398,1.727415 -2.97733,2.458101 -2.3826,1.063149 -0.61678,1.520054 8.84018,2.287387 14.45523,1.172889 23.02037,4.277712 33.44425,12.123375 4.76614,3.587298 9.39106,6.001557 11.497,6.001557 2.40792,0 4.84317,1.545278 7.69289,4.8815 2.29332,2.684825 4.16968,5.430141 4.16968,6.100703 0,1.763185 10.79995,19.995627 11.45584,19.339728 0.30309,-0.303082 -0.58456,-3.851805 -1.97255,-7.886052 z m -25.96341,-0.309816 c -3.76691,-4.938676 -14.36533,-14.126062 -16.29559,-14.126062 -2.38802,0 -29.94543,-10.585458 -31.2243,-11.993998 -0.36666,-0.403845 -2.36057,-1.813009 -4.43091,-3.131474 -3.74815,-2.38696 -3.7577,-2.384972 -2.23241,0.465056 3.48409,6.510073 12.66634,13.188653 24.66332,17.938523 14.63723,5.795195 26.08887,11.367469 29.0709,14.145654 4.14837,3.864791 4.41551,1.902682 0.44899,-3.297699 z M 258.68847,62.651152 c 4.55114,-3.240699 22.00693,-11.462713 26.64487,-12.550249 l 3.33334,-0.781623 -3.33334,1.565798 c -1.83333,0.861188 -5.43333,2.505107 -8,3.653153 -3.45131,1.543742 -4.03938,2.208755 -2.25802,2.553499 1.32475,0.256379 6.87475,-1.654804 12.33333,-4.247072 11.88132,-5.642412 13.21684,-8.844657 3.68874,-8.844657 -8.23592,0 -25.82509,8.465333 -33.03465,15.898941 -5.68658,5.863307 -5.41583,7.054178 0.62573,2.75221 z m 98.64487,-5.317817 c -2.56666,-1.40519 -5.26666,-2.554892 -6,-2.554892 -0.73333,0 0.76667,1.149702 3.33334,2.554892 2.56666,1.405191 5.26666,2.554892 6,2.554892 0.73333,0 -0.76667,-1.149701 -3.33334,-2.554892 z M 272.00001,41.30512 c 10.91792,-6.320308 20.72578,-9.246038 31.90867,-9.518502 4.8169,-0.11736 6.808,-0.455375 4.42466,-0.751144 -2.38333,-0.295769 -4.33333,-1.137495 -4.33333,-1.870502 0,-0.806738 -3.42432,-1.120162 -8.67628,-0.794128 -6.73698,0.418223 -10.83481,1.653874 -18.33333,5.528194 -10.32547,5.334936 -27.59721,19.175554 -18.32373,14.683618 2.56667,-1.243255 8.56667,-4.518146 13.33334,-7.277536 z m 116.66667,2.111768 C 373.38215,29.978117 354.59056,24.013635 342.00001,28.604808 l -5.33333,1.944812 8.758,0.05852 c 11.76378,0.07861 20.37585,2.84872 35.7053,11.484762 7.06869,3.982236 13.15618,7.228089 13.52776,7.213006 0.37159,-0.01508 -2.32439,-2.665143 -5.99106,-5.889024 z m -79.33334,-4.885106 c 1.77778,-0.993207 1.77778,-1.124131 0,-1.17832 -1.77777,-0.05419 -1.77777,-0.204573 0,-1.353461 1.434,-0.926723 0.11334,-1.281226 -4.66666,-1.252666 -4.38549,0.0262 -8.71973,1.124354 -12.66667,3.209311 l -6,3.169478 10.66667,-0.738492 c 5.86666,-0.40617 11.56666,-1.241303 12.66666,-1.85585 z m 80.00001,0.964812 c 0,-0.276874 -1.05,-1.326874 -2.33334,-2.333333 -2.11474,-1.658494 -2.1619,-1.611334 -0.5034,0.503407 1.74182,2.220997 2.83674,2.927305 2.83674,1.829926 z M 333.66668,35.11696 c -0.91667,-0.369883 -2.41667,-0.369883 -3.33334,0 -0.91666,0.369883 -0.16666,0.672515 1.66667,0.672515 1.83333,0 2.58333,-0.302632 1.66667,-0.672515 z m 5.35166,-13.388868 c -1.63991,-0.316482 -4.63991,-0.324672 -6.66666,-0.0182 -2.02675,0.306473 -0.685,0.565413 2.98166,0.575423 3.66667,0.01001 5.32492,-0.24074 3.685,-0.557223 z"
       id="path1" />
  </g>
</svg>
